<svg class="svg-icon" style="width: 1.001953125em;height: 1em;vertical-align: middle;fill: currentColor;overflow: hidden;" viewBox="0 0 1026 1024" version="1.1" xmlns="http://www.w3.org/2000/svg"><path d="M830.248579 115.312303a115.312303 115.312303 0 1 1-230.624605-0.09225A115.312303 115.312303 0 0 1 830.248579 115.312303z m0 666.966358a92.249842 92.249842 0 1 0 0 184.499684 92.249842 92.249842 0 0 0 0-184.499684z m166.972214-312.726965L824.713589 293.354498A44.279924 44.279924 0 0 0 789.658649 276.749526H139.297262a46.124921 46.124921 0 0 0 0 92.249842H461.249211L190.957173 765.67369a45.017923 45.017923 0 0 0 0 18.449968 47.139669 47.139669 0 0 0 92.249842 19.372467H276.749526L383.759343 645.748895H553.499053l-178.042196 298.889488a45.202423 45.202423 0 0 0-6.457489 23.984959 47.047419 47.047419 0 0 0 92.249843 18.449969l338.55692-588.553993 136.529767 136.529766a46.124921 46.124921 0 1 0 64.574889-65.497388h-3.689994z"  /></svg>