<svg class="svg-icon" style="width: 1em; height: 1em;vertical-align: middle;fill: currentColor;overflow: hidden;" viewBox="0 0 1024 1024" version="1.1" xmlns="http://www.w3.org/2000/svg"><path d="M192 443.733333c-38.4 0-68.266667 29.866667-68.266667 68.266667 0 38.4 29.866667 68.266667 68.266667 68.266667s68.266667-29.866667 68.266667-68.266667c0-38.4-29.866667-68.266667-68.266667-68.266667zM512 443.733333c-38.4 0-68.266667 29.866667-68.266667 68.266667 0 38.4 29.866667 68.266667 68.266667 68.266667s68.266667-29.866667 68.266667-68.266667c0-38.4-29.866667-68.266667-68.266667-68.266667zM832 443.733333c-38.4 0-68.266667 29.866667-68.266667 68.266667 0 38.4 29.866667 68.266667 68.266667 68.266667s68.266667-29.866667 68.266667-68.266667c0-38.4-34.133333-68.266667-68.266667-68.266667z" fill="#111111" /></svg>